<?xml version="1.0" standalone="no"?>
<!DOCTYPE svg PUBLIC "-//W3C//DTD SVG 20010904//EN"
 "http://www.w3.org/TR/2001/REC-SVG-20010904/DTD/svg10.dtd">
<svg version="1.0" xmlns="http://www.w3.org/2000/svg"
 width="804.000000pt" height="277.000000pt" viewBox="0 0 804.000000 277.000000"
 preserveAspectRatio="xMidYMid meet">

<g transform="translate(0.000000,277.000000) scale(0.100000,-0.100000)"
fill="#000000" stroke="none">
<path d="M0 1385 l0 -1385 4020 0 4020 0 0 1385 0 1385 -4020 0 -4020 0 0
-1385z m4833 1284 c146 -22 267 -111 318 -233 12 -30 26 -53 31 -50 4 3 8 66
8 140 l0 134 328 0 c304 0 333 -2 388 -20 62 -22 123 -71 152 -125 l17 -30 5
85 5 85 383 3 382 2 0 -84 c0 -47 4 -87 9 -90 5 -4 19 9 31 28 77 126 266 188
467 154 184 -31 276 -107 333 -272 20 -59 45 -259 35 -276 -4 -6 -85 -10 -196
-10 l-189 0 -1 33 c-5 147 -19 177 -84 177 -54 0 -85 -33 -85 -89 1 -72 34
-119 197 -276 191 -184 273 -278 311 -358 103 -215 72 -578 -63 -743 -76 -92
-240 -138 -417 -115 -49 6 -112 20 -138 30 -61 23 -147 85 -155 112 -13 40
-30 12 -31 -52 -1 -35 -2 -67 -3 -71 0 -5 -260 -8 -576 -8 l-575 0 0 384 c0
211 -3 398 -6 416 -8 39 -56 72 -99 68 l-30 -3 -5 -430 -5 -430 -192 -3 -193
-2 0 149 c0 89 -4 152 -10 156 -5 3 -10 0 -10 -7 0 -30 -62 -141 -105 -187
-127 -136 -385 -169 -576 -74 -105 52 -174 147 -216 294 -16 58 -18 114 -18
637 l0 573 -75 -3 -75 -3 -3 -767 -2 -768 -190 0 -190 0 -2 768 -3 767 -70 0
-70 0 -6 -595 c-4 -496 -8 -603 -20 -645 -60 -194 -180 -290 -385 -310 -211
-20 -390 65 -463 219 -53 113 -54 120 -60 746 l-6 585 -67 3 -68 3 -2 -768 -3
-768 -190 0 -190 0 -3 768 -2 767 -110 0 c-105 0 -110 1 -115 23 -3 12 -4 94
-3 182 l3 160 562 3 562 2 3 -742 c4 -782 4 -795 48 -818 45 -24 94 -10 118
34 16 28 17 95 20 779 l3 747 564 0 565 0 0 -70 c0 -38 4 -70 8 -70 4 0 25 17
46 39 50 52 129 90 218 106 93 17 142 18 231 4z m-3555 -2174 c32 -13 72 -57
72 -79 0 -14 -40 -4 -52 12 -35 50 -105 56 -149 13 -26 -27 -29 -36 -29 -94 0
-56 4 -70 26 -96 22 -26 33 -31 71 -31 37 0 50 5 73 30 15 16 33 30 38 30 40
0 5 -65 -45 -86 -69 -29 -160 -8 -186 43 -38 72 -33 173 10 224 43 51 100 62
171 34z m607 -9 c36 -24 57 -78 56 -147 0 -97 -40 -149 -119 -157 -62 -5 -117
19 -139 62 -11 20 -17 56 -17 102 0 80 14 112 67 145 38 24 111 22 152 -5z
m1156 1 c39 -26 52 -67 21 -67 -11 0 -27 11 -36 25 -13 20 -25 25 -60 25 -49
0 -69 -17 -64 -52 2 -15 15 -28 37 -38 140 -63 154 -77 143 -138 -13 -68 -188
-85 -222 -22 -26 48 6 70 36 25 14 -21 24 -25 68 -25 54 0 76 12 76 40 0 24
-26 43 -94 70 -88 35 -115 76 -86 130 27 51 124 66 181 27z m2196 3 c52 -31
65 -61 66 -144 1 -122 -51 -176 -160 -163 -50 5 -80 28 -99 74 -20 46 -18 141
4 183 32 65 125 89 189 50z m1662 9 c39 -14 71 -66 46 -75 -9 -4 -25 4 -40 20
-40 43 -135 30 -135 -19 0 -20 45 -52 99 -70 64 -21 91 -48 91 -89 0 -62 -61
-95 -153 -83 -40 5 -87 42 -87 68 0 24 34 21 52 -4 17 -24 27 -27 73 -27 42 0
56 4 64 18 18 33 -9 62 -83 92 -77 30 -96 49 -96 95 0 67 84 103 169 74z
m-4519 -95 c39 -52 74 -102 77 -110 14 -37 23 -5 25 94 3 102 4 107 26 110
l22 3 0 -155 0 -156 -24 0 c-20 0 -39 21 -98 105 -40 57 -79 104 -85 105 -10
0 -13 -27 -13 -105 0 -98 -1 -105 -20 -105 -19 0 -20 7 -20 155 0 148 1 155
20 155 13 0 42 -30 90 -96z m1068 -29 c3 -142 10 -155 82 -155 75 0 84 17 88
161 3 109 5 119 23 119 18 0 19 -8 19 -120 0 -68 -5 -130 -11 -144 -23 -50
-114 -71 -185 -41 -51 21 -64 61 -64 195 0 110 0 111 23 108 21 -3 22 -7 25
-123z m584 -12 l3 -138 89 -5 c59 -3 91 -9 94 -17 3 -10 -24 -13 -112 -13
l-116 0 0 155 c0 148 1 155 20 155 18 0 20 -8 22 -137z m698 123 c0 -11 -14
-16 -47 -18 l-48 -3 -3 -137 c-2 -130 -4 -138 -22 -138 -19 0 -20 7 -20 134 0
148 1 146 -66 146 -24 0 -34 5 -34 15 0 13 20 15 120 15 98 0 120 -3 120 -14z
m1097 -1 c12 -8 27 -31 33 -50 10 -30 9 -41 -8 -75 -17 -34 -17 -41 -4 -54 8
-8 17 -37 20 -65 4 -50 4 -51 -22 -51 -24 0 -26 3 -26 44 0 57 -15 68 -87 64
l-58 -3 -3 -53 c-3 -48 -5 -53 -25 -50 -21 3 -22 7 -25 143 -1 77 0 145 3 152
7 20 174 18 202 -2z m593 0 c0 -11 -19 -15 -87 -17 l-88 -3 -3 -52 -3 -52 73
-3 c92 -4 92 -21 1 -28 l-68 -5 -3 -52 -3 -53 90 0 c74 0 91 -3 91 -15 0 -12
-19 -15 -115 -15 l-115 0 0 155 0 155 115 0 c94 0 115 -3 115 -15z"/>
<path d="M4670 2300 c-11 -11 -23 -32 -27 -47 -11 -37 -10 -1037 0 -1086 10
-48 39 -77 76 -77 93 0 91 -11 91 624 0 522 -1 542 -20 574 -17 27 -25 32 -60
32 -26 0 -47 -7 -60 -20z"/>
<path d="M5585 2298 c-3 -7 -4 -88 -3 -178 l3 -165 46 -3 c62 -4 94 22 108 89
20 93 9 215 -22 246 -21 21 -125 30 -132 11z"/>
<path d="M6487 2284 c-4 -4 -7 -87 -7 -185 l0 -179 178 -2 177 -3 0 -175 0
-175 -177 -3 c-132 -2 -178 -6 -178 -15 0 -6 -1 -103 -3 -215 -2 -196 -1 -203
18 -208 11 -3 85 -3 165 -2 l145 3 -4 167 -3 167 23 6 c13 3 98 4 189 3 l165
-3 5 -157 c4 -139 7 -160 26 -185 28 -37 93 -44 123 -14 41 41 36 202 -10 299
-15 31 -86 112 -213 242 -257 263 -297 333 -302 530 l-3 105 -153 3 c-85 1
-157 -1 -161 -4z"/>
<path d="M6037 1815 c-15 -19 -41 -40 -57 -47 -38 -16 -38 -22 0 -38 17 -7 46
-31 65 -53 l35 -41 0 107 c0 59 -3 107 -7 106 -5 0 -21 -16 -36 -34z"/>
<path d="M1739 444 c-21 -22 -24 -35 -24 -99 0 -64 3 -77 25 -100 33 -35 103
-33 132 5 23 31 33 87 24 136 -15 79 -106 113 -157 58z"/>
<path d="M5107 446 c-45 -42 -48 -147 -6 -201 29 -36 96 -36 130 1 21 22 24
35 24 99 0 64 -3 77 -24 99 -33 35 -88 36 -124 2z"/>
<path d="M5674 456 c-3 -7 -4 -35 -2 -62 3 -46 5 -49 32 -52 80 -9 127 25 112
82 -4 18 -16 28 -44 35 -51 15 -92 14 -98 -3z"/>
</g>
</svg>
